<svg xmlns="http://www.w3.org/2000/svg" viewBox="0 0 512 512" width="512" height="512">
  <defs>
    <linearGradient id="fg" x1="0.3" y1="1" x2="0.7" y2="0">
      <stop offset="0%" stop-color="#E07020"/>
      <stop offset="50%" stop-color="#F0983E"/>
      <stop offset="100%" stop-color="#F5B84A"/>
    </linearGradient>
    <linearGradient id="bg" x1="0.5" y1="0" x2="0.5" y2="1">
      <stop offset="0%" stop-color="#58A6FF"/>
      <stop offset="100%" stop-color="#6C6CFF"/>
    </linearGradient>
  </defs>
  <rect width="512" height="512" fill="#0D1117"/>
  <!-- Main flame body -->
  <path d="
    M256 68
    C242 92 195 158 172 210
    C148 265 138 305 142 340
    C148 385 170 418 205 440
    C225 452 242 458 256 460
    C270 458 287 452 307 440
    C342 418 364 385 370 340
    C374 305 364 265 340 210
    C317 158 270 92 256 68Z
  " fill="url(#fg)"/>
  <!-- Right flame tongue -->
  <path d="
    M300 78
    C316 110 365 175 378 218
    C388 250 387 275 378 300
    C372 315 364 322 356 330
    C362 305 360 275 350 248
    C335 200 308 142 300 78Z
  " fill="url(#fg)"/>
  <!-- Left flame tongue -->
  <path d="
    M212 78
    C196 110 147 175 134 218
    C124 250 125 275 134 300
    C140 315 148 322 156 330
    C150 305 152 275 162 248
    C177 200 204 142 212 78Z
  " fill="url(#fg)"/>
  <!-- Inner dark void -->
  <path d="
    M256 210
    C244 230 212 280 208 318
    C205 345 212 368 228 385
    C240 395 250 400 256 402
    C262 400 272 395 284 385
    C300 368 307 345 304 318
    C300 280 268 230 256 210Z
  " fill="#0D1117"/>
  <!-- Blue core crescent -->
  <path d="
    M210 370
    C210 342 230 325 256 325
    C282 325 302 342 302 370
    C302 395 282 408 256 408
    C230 408 210 395 210 370Z
  " fill="url(#bg)" opacity="0.8"/>
</svg>
